<?xml version="1.0" encoding="UTF-8"?>
<svg id="_레이어_2" data-name="레이어 2" xmlns="http://www.w3.org/2000/svg" viewBox="0 0 908.35 914.66">
  <defs>
    <style>
      .cls-1 {
        fill: #fff;
      }
    </style>
  </defs>
  <g id="_레이어_1-2" data-name="레이어 1">
    <path class="cls-1" d="M516.56,4.31c1.41.2,2.82.4,4.24.6,43.57,6.27,85.65,18.16,125.76,36.4.91.41,1.82.82,2.76,1.24,33.66,15.18,65.7,35.32,94.24,58.76.55.45,1.09.9,1.66,1.36,7.49,6.19,14.72,12.64,21.84,19.25,1.54,1.42,3.09,2.83,4.64,4.24,7.7,7,15.18,14.07,21.96,21.97,2.17,2.48,4.41,4.89,6.65,7.3,5.24,5.76,10.04,11.79,14.78,17.97,1.51,1.96,3.04,3.9,4.57,5.84,12.15,15.52,23.17,31.93,32.91,49.07.45.78.89,1.57,1.35,2.37,49.66,88.02,68.92,188.76,42.74,351.63-17.15,60.29-46.29,118.57-87.57,166.07-2.47,2.86-4.85,5.79-7.21,8.74-3.27,4.02-6.71,7.7-10.42,11.3-1.86,1.85-3.56,3.77-5.27,5.76-5.99,6.94-12.54,13.33-19.51,19.29-2.52,2.19-4.97,4.45-7.43,6.71-5.41,4.92-10.95,9.6-16.69,14.12-.71.56-1.43,1.13-2.16,1.71-18.6,14.65-38.2,27.68-58.84,39.29-.87.49-1.73.98-2.62,1.49-49.91,28.21-104.71,45.49-161.38,53.51q-1.68.25-3.4.5c-37.85,5.35-78.81,5.09-116.6-.5-1.41-.2-2.82-.4-4.23-.6-49.25-7.09-97.59-21.11-141.75-44.34-2.29-1.2-4.6-2.36-6.91-3.53-29.19-14.87-56.06-33.45-81.11-54.52-.56-.47-1.13-.95-1.71-1.43q-12.25-10.31-17.72-15.99c-1.78-1.79-3.66-3.43-5.57-5.07-5.77-5-10.96-10.37-15.93-16.16-2.05-2.32-4.16-4.58-6.28-6.83-6.24-6.65-11.96-13.58-17.49-20.82-1.23-1.6-2.47-3.18-3.72-4.76-12.91-16.46-24.29-33.72-34.58-51.93-.52-.92-1.04-1.83-1.57-2.77C26.44,623.72,6.6,559.52,1.56,493.31q-.17-1.95-.34-3.95c-6.97-91.56,15.48-185.85,79.34-291.05.4-.57.8-1.15,1.21-1.74,12.23-17.59,25.81-34.06,40.39-49.74,1.41-1.53,2.81-3.08,4.2-4.63,12.03-13.37,25.36-25.42,39.2-36.89q.88-.73,1.77-1.47C230.47,51.82,307.25,18.02,396.56,4.31q1.85-.27,3.74-.54c37.79-5.19,78.54-5.01,116.26.54ZM268.99,259.06c-.81.08-1.61.16-2.44.25-25.62,2.63-51.12,6.35-76.43,11.13-1.24.23-2.47.46-3.75.69-13.91,2.74-24.98,7.32-33.69,18.99-6.94,10.72-9.54,22.23-7.06,34.81,1.63,6.2,4.24,11.17,7.94,16.38.72,1.05,1.44,2.1,2.19,3.19,8.15,8.15,19.35,13.86,30.98,14.07,7.39-.07,14.44-1.48,21.65-2.91,74.38-14.59,151.76-17.58,227.18-10.35.76.07,1.53.15,2.31.22,10.6,1.02,21.15,2.3,31.69,3.78.74.1,1.48.21,2.24.31,48.22,6.8,95.43,17.76,141.76,32.69q1.03.33,2.08.67c34.24,11.05,67.24,24.97,99.65,40.57,1.11.54,2.23,1.07,3.38,1.62,2.1,1.01,4.19,2.03,6.28,3.05,14.8,7.18,26.96,12.61,43.55,8.16,11.19-3.89,20.01-11.6,25.5-22.07,5.91-12.91,5.61-23.88.79-37.12-4.45-10.12-12.67-16.87-22.23-21.88q-1.48-.83-2.98-1.68c-31.34-17.37-65.43-31.02-99.02-43.32-1.2-.45-2.4-.89-3.64-1.35-79.9-29.58-164.98-47.07-253.36-52.65-1.31-.09-2.63-.18-3.98-.27-15.32-.95-30.65-.92-46-.92-3.07,0-6.15,0-9.22-.02-28.55-.13-56.95,1-85.36,3.96ZM284.75,416.05c-2.31.27-4.63.52-6.94.77-18.34,2.02-36.54,4.7-54.7,7.98-.77.14-1.55.27-2.35.42-8.13,1.46-16.09,3.18-23.99,5.6q-.98.3-1.98.6c-8.58,2.75-14.37,7.88-19.03,15.5-4.78,9.35-5.61,18.4-2.66,28.45,3.5,9.54,9.37,16.31,18.44,20.94,11.56,4.8,22.11,2.62,33.95.24,4.15-.83,8.3-1.63,12.45-2.42q1.24-.24,2.51-.48c86.05-16.39,176.79-13.69,282.1,9.67.65.16,1.31.32,1.98.48,45.51,11.02,90.19,27.43,131.98,48.5.85.43,1.71.86,2.59,1.3,4.22,2.13,8.43,4.28,12.63,6.45,1.55.79,3.1,1.58,4.66,2.38.69.36,1.39.73,2.1,1.1,9.45,4.8,18.35,5.74,28.64,3.14,9.3-3.18,16.26-9.56,20.99-18.1,3.9-8.7,4.79-17.81,1.5-26.85-6.18-14.02-16.85-20.19-30.18-26.96-1.16-.59-2.31-1.18-3.51-1.79-24.52-12.45-49.75-23.22-75.47-32.93-1.8-.68-3.6-1.37-5.4-2.05-57.44-21.8-118.19-34.72-179.17-41.4-2.22-.25-4.44-.5-6.65-.76-47.07-5.35-97.42-5.21-144.47.25ZM291.56,557.31c-.72.08-1.43.16-2.17.25-18.14,2.11-36.06,5.21-53.95,8.81q-1.25.25-2.53.5-17.36,3.26-31.34,13.44c-4.62,7.4-5.91,14.33-5,23,2.68,8.88,8.45,14.24,16.19,18.94,10.01,2.79,20,.7,29.9-1.64,24.77-5.83,50.1-9.43,75.49-11.13,2.25-.15,4.5-.32,6.75-.5,79.85-5.69,161.69,8.25,301.96,68.35,8.31,4.44,14.47,7.4,23.91,4.8,7.88-2.71,13.8-7.38,17.86-14.69,3.08-7.15,2.93-14.2.21-21.43-2.6-6.23-6.25-10.03-12.02-13.48q-.85-.51-1.71-1.02c-6.94-4.11-14.09-7.82-21.27-11.5-.72-.37-1.44-.74-2.18-1.12-64.7-33.12-134.98-53.2-207.07-61.57q-1.06-.13-2.14-.25c-43.14-5.06-87.73-4.78-130.86.25Z"/>
  </g>
</svg>